# xmcd
#
# Track frame offsets: 
#        150
#        12165
#        26312
#        39972
#        51162
#        68260
#        80860
#        92837
#        104797
#        118015
#
# Disc length: 1745 seconds
#
# Revision: 2
# Processed by: cddbd v1.5.2PL0 Copyright (c) Steve Scherf et al.
# Submitted via: ExactAudioCopy v0.99pb4
#
DISCID=7806cf0a
DTITLE=Various Artist - The Greatest Women Of COUNTRY
DYEAR=1997
DGENRE=
TTITLE0=Patsy Cline - Walkin' After Midnight
TTITLE1=Tanya Tucker - Blood Red And Going Down
TTITLE2=Tammy Wynette - D-I-V-O-R-C-E
TTITLE3=Janie Fricke - Don't Worry About Me Baby
TTITLE4=Shelby Lynn - Little Bits And Pieces
TTITLE5=Barbara Nandrell - The Midnight Oil
TTITLE6=Lacy J. Dalton - Hard Times
TTITLE7=Patsy Cline - A Poor Man's Roses
TTITLE8=Sweethearts Of The Rodeo - Blue To The Bone
TTITLE9=Tammy Wynette - Womanhood
EXTD=
EXTT0=
EXTT1=
EXTT2=
EXTT3=
EXTT4=
EXTT5=
EXTT6=
EXTT7=
EXTT8=
EXTT9=
PLAYORDER=
